<svg width="109" height="82" viewBox="0 0 109 82" fill="none" xmlns="http://www.w3.org/2000/svg">
<path d="M50.5 41C50.5 52.0816 47.6487 62.0436 43.118 69.1881C38.5757 76.351 32.4865 80.5 26 80.5C19.5136 80.5 13.4243 76.351 8.88199 69.1881C4.35134 62.0436 1.5 52.0816 1.5 41C1.5 29.9184 4.35134 19.9564 8.88199 12.8119C13.4243 5.64903 19.5136 1.5 26 1.5C32.4865 1.5 38.5757 5.64903 43.118 12.8119C47.6487 19.9564 50.5 29.9184 50.5 41Z" stroke="black" stroke-width="3"/>
<path d="M46.5 55.5C46.5 61.3509 44.8997 66.6256 42.3385 70.4232C39.7753 74.2238 36.2876 76.5 32.5 76.5C28.7124 76.5 25.2247 74.2238 22.6615 70.4232C20.1003 66.6256 18.5 61.3509 18.5 55.5C18.5 49.6491 20.1003 44.3744 22.6615 40.5768C25.2247 36.7762 28.7124 34.5 32.5 34.5C36.2876 34.5 39.7753 36.7762 42.3385 40.5768C44.8997 44.3744 46.5 49.6491 46.5 55.5Z" fill="black" stroke="black"/>
<path d="M107.5 41C107.5 52.0816 104.649 62.0436 100.118 69.1881C95.5757 76.351 89.4865 80.5 83 80.5C76.5136 80.5 70.4243 76.351 65.882 69.1881C61.3513 62.0436 58.5 52.0816 58.5 41C58.5 29.9184 61.3513 19.9564 65.882 12.8119C70.4243 5.64903 76.5136 1.5 83 1.5C89.4865 1.5 95.5757 5.64903 100.118 12.8119C104.649 19.9564 107.5 29.9184 107.5 41Z" stroke="black" stroke-width="3"/>
<path d="M103.5 55.5C103.5 61.3509 101.9 66.6256 99.3385 70.4232C96.7753 74.2238 93.2876 76.5 89.5 76.5C85.7124 76.5 82.2247 74.2238 79.6615 70.4232C77.1003 66.6256 75.5 61.3509 75.5 55.5C75.5 49.6491 77.1003 44.3744 79.6615 40.5768C82.2247 36.7762 85.7124 34.5 89.5 34.5C93.2876 34.5 96.7753 36.7762 99.3385 40.5768C101.9 44.3744 103.5 49.6491 103.5 55.5Z" fill="black" stroke="black"/>
</svg>
